<svg width="36" height="36" viewBox="0 0 36 36" fill="none" xmlns="http://www.w3.org/2000/svg">
<path d="M4.5 18H18V20.25H4.5V18ZM2.25 12.375H13.5V14.625H2.25V12.375Z" fill="#449EA3"/>
<path d="M33.6601 18.6818L30.2851 10.8068C30.1984 10.6044 30.0542 10.432 29.8704 10.3108C29.6867 10.1896 29.4714 10.125 29.2512 10.125H25.8762V7.875C25.8762 7.57663 25.7577 7.29048 25.5467 7.07951C25.3358 6.86853 25.0496 6.75 24.7512 6.75H6.75123V9H23.6262V23.1255C23.1139 23.4236 22.6655 23.8199 22.3068 24.2917C21.9481 24.7636 21.6862 25.3016 21.536 25.875H14.4665C14.1927 24.8145 13.5415 23.8903 12.635 23.2756C11.7285 22.6609 10.6289 22.3979 9.54236 22.5359C8.45582 22.6739 7.45691 23.2034 6.73287 24.0252C6.00883 24.8471 5.60938 25.9047 5.60938 27C5.60937 28.0953 6.00883 29.1529 6.73287 29.9748C7.45691 30.7966 8.45582 31.3261 9.54236 31.4641C10.6289 31.6021 11.7285 31.3391 12.635 30.7244C13.5415 30.1097 14.1927 29.1855 14.4665 28.125H21.536C21.7807 29.0905 22.3404 29.9469 23.1265 30.5586C23.9126 31.1703 24.8802 31.5024 25.8762 31.5024C26.8723 31.5024 27.8399 31.1703 28.626 30.5586C29.4121 29.9469 29.9718 29.0905 30.2165 28.125H32.6262C32.9246 28.125 33.2108 28.0065 33.4217 27.7955C33.6327 27.5845 33.7512 27.2984 33.7512 27V19.125C33.7512 18.9726 33.7202 18.8218 33.6601 18.6818ZM10.1262 29.25C9.68122 29.25 9.24621 29.118 8.8762 28.8708C8.50619 28.6236 8.2178 28.2722 8.0475 27.861C7.87721 27.4499 7.83265 26.9975 7.91946 26.561C8.00628 26.1246 8.22057 25.7237 8.53524 25.409C8.84991 25.0943 9.25082 24.8801 9.68728 24.7932C10.1237 24.7064 10.5761 24.751 10.9873 24.9213C11.3984 25.0916 11.7498 25.38 11.997 25.75C12.2443 26.12 12.3762 26.555 12.3762 27C12.3762 27.5967 12.1392 28.169 11.7172 28.591C11.2953 29.0129 10.723 29.25 10.1262 29.25ZM25.8762 12.375H28.5087L30.9207 18H25.8762V12.375ZM25.8762 29.25C25.4312 29.25 24.9962 29.118 24.6262 28.8708C24.2562 28.6236 23.9678 28.2722 23.7975 27.861C23.6272 27.4499 23.5827 26.9975 23.6695 26.561C23.7563 26.1246 23.9706 25.7237 24.2852 25.409C24.5999 25.0943 25.0008 24.8801 25.4373 24.7932C25.8737 24.7064 26.3261 24.751 26.7373 24.9213C27.1484 25.0916 27.4998 25.38 27.747 25.75C27.9943 26.12 28.1262 26.555 28.1262 27C28.1262 27.5967 27.8892 28.169 27.4672 28.591C27.0453 29.0129 26.473 29.25 25.8762 29.25ZM31.5012 25.875H30.2165C29.9687 24.9114 29.4081 24.0572 28.6226 23.4464C27.8372 22.8356 26.8712 22.5028 25.8762 22.5V20.25H31.5012V25.875Z" fill="#449EA3"/>
</svg>
