<svg width="24" height="24" viewBox="0 0 24 24" fill="none" xmlns="http://www.w3.org/2000/svg">
<rect x="0.5" y="0.5" width="23" height="23" rx="11.5" stroke="white"/>
<path d="M9.25192 15.8499L6.04359 12.6416C5.95969 12.5567 5.85978 12.4892 5.74963 12.4432C5.63948 12.3972 5.5213 12.3735 5.40192 12.3735C5.28255 12.3735 5.16436 12.3972 5.05422 12.4432C4.94407 12.4892 4.84415 12.5567 4.76026 12.6416C4.67534 12.7255 4.60791 12.8254 4.5619 12.9355C4.51588 13.0457 4.49219 13.1639 4.49219 13.2832C4.49219 13.4026 4.51588 13.5208 4.5619 13.6309C4.60791 13.7411 4.67534 13.841 4.76026 13.9249L8.60109 17.7657C8.95859 18.1232 9.53609 18.1232 9.89359 17.7657L19.6103 8.05824C19.6952 7.97434 19.7626 7.87443 19.8086 7.76428C19.8546 7.65413 19.8783 7.53594 19.8783 7.41657C19.8783 7.2972 19.8546 7.17901 19.8086 7.06887C19.7626 6.95872 19.6952 6.8588 19.6103 6.77491C19.5264 6.68999 19.4264 6.62256 19.3163 6.57655C19.2061 6.53053 19.088 6.50684 18.9686 6.50684C18.8492 6.50684 18.731 6.53053 18.6209 6.57655C18.5107 6.62256 18.4108 6.68999 18.3269 6.77491L9.25192 15.8499Z" fill="white"/>
</svg>
